PathFileType	4	(X/Y/Z)	C:\Users\Basilio\Documents\Thesis Gigler\squatting_fais\c3dfiles\019\SLS_front_pre5\markers_experimental.trc
DataRate	CameraRate	NumFrames	NumMarkers	Units	OrigDataRate	OrigDataStartFrame	OrigNumFrames
200.000000	200.000000	4	59	mm	200.000000	765	1531
Frame#	Time	FHD			LBHD			RBHD			C7			T10			CLAV			LSHO			LUUPA			LMUPA			LDUPA			LLEP			LMEP			LRAD			LUL			LRFIN			RSHO			RUPA1			RMUPA			RDUPA			RLEP			RMEP			RRAD			RUL			RUFIN			LASI			RASI			USACR			LSACR			RSACR			LTHI1			LTHI2			LTHI3			LTHI4			LLFC			LTIB1			LTIB2			LTIB3			LTIB4			LLMAL			LMMAL			LHEE			LMT1			LMT2			LMT5			RTHI3			RTHI4			RLFC			RTIB1			RTIB2			RTIB3			RTIB4			RLMAL			RMMAL			RHEE			RMT1			RMT2			RMT5			RTHI			RTHI2			
		X1	Y1	Z1	X2	Y2	Z2	X3	Y3	Z3	X4	Y4	Z4	X5	Y5	Z5	X6	Y6	Z6	X7	Y7	Z7	X8	Y8	Z8	X9	Y9	Z9	X10	Y10	Z10	X11	Y11	Z11	X12	Y12	Z12	X13	Y13	Z13	X14	Y14	Z14	X15	Y15	Z15	X16	Y16	Z16	X17	Y17	Z17	X18	Y18	Z18	X19	Y19	Z19	X20	Y20	Z20	X21	Y21	Z21	X22	Y22	Z22	X23	Y23	Z23	X24	Y24	Z24	X25	Y25	Z25	X26	Y26	Z26	X27	Y27	Z27	X28	Y28	Z28	X29	Y29	Z29	X30	Y30	Z30	X31	Y31	Z31	X32	Y32	Z32	X33	Y33	Z33	X34	Y34	Z34	X35	Y35	Z35	X36	Y36	Z36	X37	Y37	Z37	X38	Y38	Z38	X39	Y39	Z39	X40	Y40	Z40	X41	Y41	Z41	X42	Y42	Z42	X43	Y43	Z43	X44	Y44	Z44	X45	Y45	Z45	X46	Y46	Z46	X47	Y47	Z47	X48	Y48	Z48	X49	Y49	Z49	X50	Y50	Z50	X51	Y51	Z51	X52	Y52	Z52	X53	Y53	Z53	X54	Y54	Z54	X55	Y55	Z55	X56	Y56	Z56	X57	Y57	Z57	X58	Y58	Z58	X59	Y59	Z59	

766	3.825	-169.9505310058594	1393.302124023438	-624.2518920898439	-301.8310241699219	1371.795166015625	-766.1990356445314	-304.5220031738282	1365.871704101563	-626.3939208984376	-360.8757019042969	1233.847412109375	-691.7005615234376	-517.4255371093751	992.2341308593752	-699.5291748046876	nan	nan	nan	-275.4261474609376	1232.536010742188	-811.0216064453127	-158.3043518066407	1214.180419921875	-867.0457153320315	-134.8711090087891	1197.835815429688	-828.1311035156252	-92.61462402343751	1210.420288085938	-869.6897583007815	-21.76191902160645	1187.893920898438	-906.6177978515627	-23.45233726501465	1128.274658203125	-901.6081542968752	228.4503784179688	1179.655883789063	-821.8624267578127	225.6934814453126	1186.896850585938	-889.018005371094	297.5731506347657	1199.4697265625	-816.8726196289065	-257.3985595703126	1224.656005859375	-589.3123168945314	-150.1267700195313	1178.643188476563	-480.7014465332032	-127.7832489013672	1198.443725585938	-520.5363159179689	-81.05887603759767	1174.0283203125	-482.7284240722657	-4.84834909439087	1171.326904296875	-497.8964843750001	-12.79136848449707	1110.764404296875	-501.5244445800782	229.5750274658204	1177.249389648438	-591.4913940429689	242.9086151123047	1191.422973632813	-527.9599609375001	311.6023864746094	1194.658935546875	-601.9655761718751	-451.1786499023439	779.2903442382815	-830.7952270507815	-437.4974060058595	755.0654907226564	-628.0276489257814	-583.1136474609376	851.1992187500002	-715.8731079101564	-598.1267700195314	822.799499511719	-743.0954589843751	-594.9912719726564	820.5555419921877	-687.0383911132814	-352.9900512695313	638.1495971679689	-924.4163208007815	-267.6765136718751	647.4564208984376	-918.8686523437502	-255.3848114013672	688.9046630859376	-897.624694824219	-226.1571502685547	603.0966186523439	-912.2384033203127	-143.0766296386719	558.2476806640626	-893.3621826171877	-17.54832267761231	481.4851074218751	-864.8262329101565	-39.61292266845704	413.951385498047	-917.969909667969	-7.100838661193849	432.014617919922	-894.5098876953127	37.19099807739259	364.6900329589844	-861.145935058594	51.76353073120119	222.2974700927735	-886.7348632812502	66.47351074218751	236.1657104492188	-805.2288208007815	6.994045734405519	170.0492858886719	-832.7517700195315	210.4566650390626	208.7460632324219	-812.2255859375002	217.5132293701172	206.8860168457032	-851.0205688476565	183.6690063476563	167.2371520996094	-900.3546142578127	-323.9880676269532	634.7178955078126	-586.6924438476564	-284.5264892578126	540.3067016601564	-573.8154907226564	-189.7453765869141	428.0533142089845	-624.1685180664064	-207.2195129394532	273.5691833496094	-707.0097045898439	-289.0914306640626	217.9474792480469	-655.0139160156251	-261.8981323242188	207.5277252197266	-692.7163696289064	-290.9129028320313	182.5635681152344	-738.0369262695314	-382.4938354492188	124.3787918090821	-695.2796630859376	-363.3675842285157	135.2963256835938	-773.0389404296877	-455.779998779297	106.5829315185547	-755.3062744140626	-256.0338439941407	56.67687225341798	-775.2365722656252	-253.0167999267579	59.05248260498048	-729.2361450195314	-294.8493652343751	48.25492095947267	-676.3358764648439	-402.0425109863282	601.7555541992189	-558.6439819335939	-336.5177917480469	604.9028930664064	-569.6629028320314	
767	3.83	-169.7433624267578	1392.2568359375	-624.4406738281251	-301.5911560058594	1370.470581054688	-766.4204101562501	-304.5740051269532	1364.741943359375	-626.4906005859376	-360.5634765625001	1232.60693359375	-691.5864868164064	-517.4215087890626	991.3326416015627	-699.5737304687501	nan	nan	nan	-275.4910278320313	1231.596557617188	-811.0466308593752	-158.1583862304688	1213.108032226563	-867.009460449219	-134.5626831054688	1197.1064453125	-828.1437988281252	-92.44624328613283	1209.214965820313	-869.653747558594	-21.581693649292	1186.728881835938	-906.560485839844	-23.31315803527832	1127.1904296875	-901.5531005859377	228.5748443603516	1178.275634765625	-821.6242675781252	226.3858947753907	1185.822143554688	-889.1013183593752	297.9026184082032	1198.265991210938	-816.3906860351565	-258.5807800292969	1224.31005859375	-588.6835937500001	-150.055908203125	1177.725952148438	-480.616424560547	-127.6122207641602	1197.447265625	-520.4865112304689	-80.96273040771486	1173.101684570313	-482.8438110351564	-4.818224430084229	1170.544799804688	-497.8297729492189	-12.86406135559082	1109.943725585938	-501.0411376953126	229.6837310791016	1176.3486328125	-591.3385009765626	242.961654663086	1190.66650390625	-527.9087524414064	310.2550048828126	1193.939086914063	-602.9688110351564	-451.2530212402345	778.3227539062502	-830.7275390625002	-437.6659545898439	754.1221313476564	-627.9067993164064	-582.9993286132814	850.4016113281252	-715.8491821289064	-598.3292236328126	821.8057861328127	-743.1207275390626	-595.0563354492189	819.592224121094	-687.0393676757814	-352.9454956054688	637.3103637695314	-924.357360839844	-267.7210693359376	646.7607421875001	-918.750915527344	-255.4876403808594	688.2491455078126	-897.6054687500002	-226.0074005126954	602.4675903320314	-912.1016845703127	-143.0984191894532	557.9110717773439	-893.2563476562502	-17.35616683959961	481.1826477050782	-864.6878662109377	-39.35066986083985	413.5745239257814	-917.8593750000002	-6.930688858032228	431.6887512207032	-894.466003417969	37.55674743652344	364.3970642089844	-860.9382324218752	52.051326751709	221.9600219726563	-886.7344360351565	66.78491973876955	235.9023895263672	-805.139099121094	7.347559928894045	169.7924346923828	-832.6370239257815	210.9100189208985	209.8765411376954	-812.1643676757815	217.0612030029297	206.6140899658204	-851.2021484375002	184.0369262695313	167.0286254882813	-900.243103027344	-323.8879089355469	634.1766967773439	-586.3829956054689	-284.4941406250001	539.7458496093751	-573.4964599609376	-189.4091339111328	427.8016052246095	-623.7811889648439	-207.0794982910157	273.3633728027344	-706.7920532226564	-289.0527954101563	217.8900604248047	-654.8385620117189	-261.8528137207032	207.4717254638672	-692.6237792968751	-290.8016052246094	182.50927734375	-737.8938598632814	-382.4380493164063	124.3422012329102	-695.1265258789064	-363.3607788085938	135.376937866211	-772.9122314453127	-455.7576599121095	106.5824432373047	-755.2572021484376	-256.1098327636719	56.74916839599611	-775.2178955078127	-252.8670349121094	59.11875915527345	-729.1838378906251	-294.8788452148438	48.2501792907715	-676.2622680664064	-402.0624084472657	601.0498657226564	-558.4529418945314	-336.5705566406251	604.3153686523439	-569.4747924804689	
768	3.835	-169.623275756836	1391.340209960938	-624.5300292968751	-301.4474182128907	1369.364624023438	-766.3260498046876	-304.2920227050782	1363.537963867188	-626.4747314453126	-360.5809020996094	1231.421752929688	-691.6050415039064	-517.3881835937501	990.4055786132815	-699.5903930664064	nan	nan	nan	-275.4645690917969	1230.623046875	-810.9890136718752	-158.0078277587891	1211.951416015625	-866.9964599609377	-134.5018615722657	1195.885620117188	-828.0893554687502	-92.34645080566408	1208.124755859375	-869.6680297851565	-21.41193771362305	1185.589721679688	-906.509460449219	-23.2776050567627	1126.018188476563	-901.6129150390627	228.6267242431641	1177.0146484375	-821.502868652344	225.8157196044922	1184.539916992188	-889.4005126953127	298.5191040039063	1196.95068359375	-815.963317871094	-258.3318481445313	1223.277221679688	-588.4352416992189	-149.8838195800782	1176.8046875	-480.6401367187501	-127.2652282714844	1196.316162109375	-520.3425903320314	-80.97324371337892	1172.109619140625	-482.7177734375001	-4.588296413421632	1169.573974609375	-497.7582397460939	-12.5961446762085	1109.003662109375	-501.0284729003907	229.8453063964844	1175.43701171875	-591.4157714843751	243.0309143066407	1190.036254882813	-527.8002929687501	310.6621398925782	1193.2158203125	-602.5872802734376	-451.3350219726564	777.4365234375002	-830.622253417969	-437.7972717285157	753.4287719726564	-627.5264282226564	-583.1954956054689	849.454528808594	-715.8572387695314	-598.6598510742189	821.0903320312502	-743.0687255859376	-594.8563842773439	818.4307250976565	-687.3890380859376	-352.7956542968751	636.4622192382814	-924.2426757812502	-267.6642761230469	646.1403808593751	-918.676696777344	-255.5638885498047	687.6094360351564	-897.563659667969	-225.9564819335938	601.7710571289064	-912.028259277344	-142.942855834961	557.3250122070314	-893.117858886719	-17.2080249786377	480.8108825683595	-864.564636230469	-39.12134170532227	413.3335266113282	-917.727478027344	-6.744844913482668	431.3662109375001	-894.4282226562502	38.00853347778321	364.0630187988282	-860.859069824219	52.65071105957033	221.561996459961	-886.468688964844	67.17221069335939	235.6113281250001	-805.0323486328127	7.632021427154543	169.6388702392578	-832.4754638671877	211.1596679687501	208.062728881836	-812.144714355469	217.8647460937501	206.1701660156251	-851.143981933594	184.3491668701172	166.6307373046875	-900.1547851562502	-323.9928283691407	633.5789794921876	-586.2487182617189	-284.4104003906251	539.2773437500001	-573.3192749023439	-189.0891571044922	427.4422912597657	-623.5250244140626	-207.0284271240235	273.2669982910157	-706.7302856445314	-288.8874816894532	217.7755737304688	-654.6719360351564	-261.7717590332032	207.4252471923829	-692.4603881835939	-290.7851867675782	182.4295043945313	-737.7002563476564	-382.3616943359376	124.2691726684571	-694.9695434570314	-363.2754821777344	135.3594207763672	-772.8081665039065	-455.7566528320314	106.6183319091797	-755.2481079101564	-256.0600280761719	56.83655929565431	-775.153747558594	-252.7893981933594	59.1470184326172	-729.1197509765626	-294.8128662109376	48.22449874877931	-676.3128051757814	-402.148651123047	600.3178710937501	-558.3503417968751	-336.6271667480469	603.8099365234376	-569.3236083984376	
769	3.84	-169.421615600586	1390.339721679688	-624.7177734375001	-301.3296203613282	1368.157958984375	-766.5046997070314	-304.0011596679688	1362.511962890625	-626.5892944335939	-360.4826049804688	1230.635986328125	-691.7507324218751	-517.3588867187501	989.5021972656252	-699.6791992187501	nan	nan	nan	-275.4262695312501	1229.569458007813	-810.9891357421877	-157.8378448486328	1210.92919921875	-866.9124145507815	-134.3001708984375	1194.9814453125	-828.0256347656252	-92.12539672851564	1207.036376953125	-869.6160888671877	-21.26838684082032	1184.49365234375	-906.3999023437502	-23.15190505981446	1124.936279296875	-901.4592285156252	228.8731689453126	1176.0302734375	-821.2010498046877	226.7375946044922	1183.425048828125	-888.609802246094	298.6910705566407	1195.67431640625	-815.6860351562502	-256.6875610351563	1221.598876953125	-589.5361328125001	-149.8833618164063	1175.895141601563	-480.6383361816407	-127.3409805297852	1195.534057617188	-520.4146728515626	-80.90599060058595	1171.282104492188	-482.6546936035157	-4.548660278320313	1168.691284179688	-497.7607727050782	-12.57182979583741	1108.090454101563	-500.7974853515626	230.0239410400391	1174.449829101563	-591.3956909179689	243.1199340820313	1189.0341796875	-527.7850952148439	310.3770446777344	1192.052368164063	-602.9708862304689	-451.353973388672	776.4307250976565	-830.5608520507815	-437.9849853515626	752.5799560546876	-627.4666137695314	-583.2200927734376	848.4578857421877	-715.9114990234376	-598.3414306640626	819.9919433593752	-743.1226806640626	-594.9495239257814	817.5581054687502	-687.3577270507814	-352.6942138671876	635.6224365234376	-924.1521606445315	-267.4736938476563	645.4709472656251	-918.6972656250002	-255.4954223632813	686.9435424804689	-897.4885253906252	-225.8393859863282	601.1359863281251	-911.9818115234377	-142.876708984375	556.9376220703126	-893.0146484375002	-16.97601890563965	480.4558105468751	-864.478698730469	-38.90416336059571	412.9249572753907	-917.616149902344	-6.539364814758303	430.9803466796876	-894.3071899414065	38.48847198486329	363.7649841308594	-860.7751464843752	53.03032302856447	221.2403717041016	-886.3415527343752	67.51751708984376	235.2076416015626	-805.000427246094	8.11599922180176	169.2640228271485	-832.4293212890627	211.4758758544922	207.5960235595704	-811.977233886719	218.1835632324219	205.7859191894532	-851.096130371094	184.4912414550782	166.4011688232422	-900.1174316406252	-324.0201416015626	633.0487060546876	-586.0055541992189	-284.3481445312501	538.8134765625001	-573.1193237304689	-188.7824859619141	427.2212829589845	-623.3536376953126	-206.8758239746094	273.0652465820313	-706.6306762695314	-288.7834167480469	217.6779327392579	-654.5220947265626	-261.7543029785157	207.2506103515626	-692.4058227539064	-290.7605590820313	182.3727416992188	-737.5984497070314	-382.3328857421876	124.2270050048828	-694.8471679687501	-363.1854858398438	135.4120025634766	-772.7711181640627	-455.8515625000001	106.6084594726563	-755.1843872070314	-256.3343811035157	57.24990081787111	-775.1888427734377	-252.7100219726563	59.16646575927736	-729.0979003906251	-294.8501892089844	48.15529251098634	-676.2894897460939	-402.1830139160157	599.5352783203126	-558.1979980468751	-336.7381591796876	603.2905883789064	-569.2482910156251	
